<?xml version="1.0" encoding="UTF-8" standalone="no"?>
<svg
   xmlns:dc="http://purl.org/dc/elements/1.1/"
   xmlns:cc="http://creativecommons.org/ns#"
   xmlns:rdf="http://www.w3.org/1999/02/22-rdf-syntax-ns#"
   xmlns:svg="http://www.w3.org/2000/svg"
   xmlns="http://www.w3.org/2000/svg"
   version="1.1"
   width="16.200001"
   height="19.1"
   viewBox="0 0 16.2 19.1"
   id="svg4">
  <metadata
     id="metadata10">
    <rdf:RDF>
      <cc:Work
         rdf:about="">
        <dc:format>image/svg+xml</dc:format>
        <dc:type
           rdf:resource="http://purl.org/dc/dcmitype/StillImage" />
        <dc:title></dc:title>
      </cc:Work>
    </rdf:RDF>
  </metadata>
  <defs
     id="defs8" />
  <g
     id="g4580"
     transform="translate(-3.8644068,-1.8491534)">
    <path
       style="fill:#333333;fill-opacity:0.34517765"
       id="path2-3"
       d="m 12,15 c -4.42,0 -8,1.79 -8,4 v 2 h 16 v -2 c 0,-2.21 -3.58,-4 -8,-4 M 8,9 a 4,4 0 0 0 4,4 4,4 0 0 0 4,-4 M 11.5,2 C 11.2,2 11,2.21 11,2.5 v 3 H 10 V 3 C 10,3 7.75,3.86 7.75,6.75 7.75,6.75 7,6.89 7,8 H 17 C 16.95,6.89 16.25,6.75 16.25,6.75 16.25,3.86 14,3 14,3 v 2.5 h -1 v -3 C 13,2.21 12.81,2 12.5,2 Z" />
  </g>
</svg>
