<?xml version="1.0" encoding="UTF-8" standalone="no"?>
<!-- Created with Inkscape (http://www.inkscape.org/) -->

<svg
   xmlns:dc="http://purl.org/dc/elements/1.1/"
   xmlns:cc="http://creativecommons.org/ns#"
   xmlns:rdf="http://www.w3.org/1999/02/22-rdf-syntax-ns#"
   xmlns:svg="http://www.w3.org/2000/svg"
   xmlns="http://www.w3.org/2000/svg"
   xmlns:sodipodi="http://sodipodi.sourceforge.net/DTD/sodipodi-0.dtd"
   xmlns:inkscape="http://www.inkscape.org/namespaces/inkscape"
   version="1.1"
   id="svg2"
   width="3540.6973"
   height="1942.8445"
   viewBox="0 0 3540.6972 1942.8444"
   sodipodi:docname="logo-inpi.svg"
   inkscape:version="0.92.4 (5da689c313, 2019-01-14)">
  <metadata
     id="metadata8">
    <rdf:RDF>
      <cc:Work
         rdf:about="">
        <dc:format>image/svg+xml</dc:format>
        <dc:type
           rdf:resource="http://purl.org/dc/dcmitype/StillImage" />
        <dc:title></dc:title>
      </cc:Work>
    </rdf:RDF>
  </metadata>
  <defs
     id="defs6" />
  <sodipodi:namedview
     pagecolor="#ffffff"
     bordercolor="#666666"
     borderopacity="1"
     objecttolerance="10"
     gridtolerance="10"
     guidetolerance="10"
     inkscape:pageopacity="0"
     inkscape:pageshadow="2"
     inkscape:window-width="1920"
     inkscape:window-height="1001"
     id="namedview4"
     showgrid="false"
     fit-margin-top="0"
     fit-margin-left="0"
     fit-margin-right="0"
     fit-margin-bottom="0"
     inkscape:zoom="0.11313708"
     inkscape:cx="-338.6338"
     inkscape:cy="1925.1649"
     inkscape:window-x="-9"
     inkscape:window-y="-9"
     inkscape:window-maximized="1"
     inkscape:current-layer="svg2" />
  <path
     style="fill:#007680;fill-opacity:1;stroke:#007680;stroke-width:1.2969197;stroke-opacity:1"
     d="m 0.64845985,1342.5732 v -82.3539 H 479.86032 959.07219 v 82.3539 82.3547 H 479.86032 0.64845985 Z"
     id="path55"
     inkscape:connector-curvature="0" />
  <path
     style="fill:#262d30;fill-opacity:1;stroke:#262d30;stroke-width:2.59383941;stroke-opacity:1"
     d="M 2.1861478,645.86651 V 208.80441 H 98.158186 194.13022 v 437.0621 437.06199 H 98.158186 2.1861478 Z"
     id="path57"
     inkscape:connector-curvature="0" />
  <path
     style="fill:#262d30;fill-opacity:1;stroke:#262d30;stroke-width:2.59383941;stroke-opacity:1"
     d="M 2.1861478,60.95546 V 1.2969197 H 98.158186 194.13022 V 60.95546 120.614 H 98.158186 2.1861478 Z"
     id="path59"
     inkscape:connector-curvature="0" />
  <path
     style="fill:#262d30;fill-opacity:1;stroke:#262d30;stroke-width:2.59383941;stroke-opacity:1"
     d="m 1116.9135,1345.5547 c -0.426,-42.4416 -1.0705,-225.9887 -1.4321,-407.88179 -0.6439,-323.8546 -2.6734,-431.792 -8.5104,-452.6243 -9.3794,-33.4763 -32.7501,-59.1885 -70.6785,-77.7595 -45.49922,-22.2778 -96.8967,-32.5103 -162.90916,-32.4313 -95.03541,0.1129 -174.85578,23.0591 -246.02708,70.7256 -29.6056,19.8282 -64.7682,56.2918 -75.51917,78.3137 l -8.83536,18.0988 -1.6863,110.2964 c -0.92739,60.6634 -1.80287,182.3733 -1.94542,270.4659 l -0.25911,160.17029 h -98.56589 -98.5659 V 644.56911 206.21035 h 98.5659 98.56589 v 62.25256 c 0,34.2383 0.68708,62.2519 1.5269,62.2519 0.83971,0 7.38235,-5.122 14.53922,-11.3832 29.80109,-26.0687 108.20941,-66.5416 166.91909,-86.1592 73.39193,-24.52469 138.26283,-33.53385 225.5445,-31.32576 195.36709,4.94375 315.70479,66.86576 353.77689,182.04196 10.9652,33.1723 12.8984,57.5669 15.8634,200.1774 3.3545,161.3526 5.446,181.5854 21.6241,209.1915 10.2476,17.4864 38.9689,42.7321 59.9497,52.6965 48.639,23.0986 165.3323,36.7504 289.3271,33.8487 162.5736,-3.8045 222.6943,-25.8653 254.1727,-93.2657 16.4493,-35.2209 18.5275,-49.7272 20.0331,-139.8454 1.8217,-109.0278 -2.1131,-140.9566 -22.4776,-182.3941 -19.1325,-38.9304 -54.066,-65.27 -96.9424,-73.0954 -16.2504,-2.9649 -63.9168,-4.575 -204.0689,-6.8923 l -182.8655,-3.0232 -22.0477,-11.5076 c -38.8831,-20.294 -68.2347,-55.1698 -85.2693,-101.3161 -6.7754,-18.3547 -15.8904,-51.63694 -15.8904,-58.02184 0,-4.85175 5.5235,-4.92075 273.0016,-3.42066 171.5618,0.96244 280.4454,2.56603 293.035,4.31554 85.3892,11.86774 159.3401,59.75196 200.3893,129.75446 35.197,60.0222 49.4647,129.2836 52.364,254.1964 4.9876,214.8828 -28.6462,324.3412 -121.0471,393.9368 -51.5206,38.80469 -112.3743,58.39489 -202.3195,65.13129 -19.2592,1.4426 -78.2042,2.6135 -130.9888,2.602 -154.9186,-0.036 -253.9586,-6.2217 -293.1166,-18.3166 -20.7772,-6.4173 -48.1346,-25.8465 -69.1718,-49.12629 l -16.8526,-18.6487 -1.723,161.73069 c -0.9476,88.9516 -1.7239,190.6191 -1.7251,225.9276 v 64.1976 h -98.4904 -98.4905 z"
     id="path61"
     inkscape:connector-curvature="0" />
  <path
     style="fill:#262d30;fill-opacity:1;stroke:#262d30;stroke-width:2.59383941;stroke-opacity:1"
     d="M 2274.3895,644.56911 V 206.21035 h 95.9721 95.9721 v 438.35876 438.35939 h -95.9721 -95.9721 z"
     id="path63"
     inkscape:connector-curvature="0" />
  <path
     style="fill:#262d30;fill-opacity:1;stroke:#262d30;stroke-width:2.59383941;stroke-opacity:1"
     d="M 2274.3894,60.95546 V 1.2969197 h 95.972 95.9721 V 60.95546 120.614 h -95.9721 -95.972 z"
     id="path65"
     inkscape:connector-curvature="0" />
  <path
     style="fill:#262d30;fill-opacity:1;stroke:#262d30;stroke-width:1.2969197;stroke-opacity:1"
     d="m 1463.6804,1862.0122 v -77.8156 h 20.7507 20.7508 v 77.8156 77.8149 h -20.7508 -20.7507 z"
     id="path67"
     inkscape:connector-curvature="0" />
  <path
     style="fill:#262d30;fill-opacity:1;stroke:#262d30;stroke-width:1.2969197;stroke-opacity:1"
     d="m 1547.9802,1862.0122 v -77.8156 h 25.8479 25.8479 l 27.0016,53.4979 27.0016,53.4979 1.1399,-53.4979 1.1401,-53.4979 h 17.3411 17.3411 v 77.8156 77.8149 h -25.8329 -25.8329 l -26.1951,-51.5529 c -14.4072,-28.3536 -26.7105,-52.1071 -27.3407,-52.7841 -0.6676,-0.7181 -1.1458,6.0981 -1.1458,16.3248 0,9.6561 -0.3857,33.4095 -0.8569,52.7849 l -0.8569,35.2273 h -17.3 -17.3 z"
     id="path69"
     inkscape:connector-curvature="0" />
  <path
     style="fill:#262d30;fill-opacity:1;stroke:#262d30;stroke-width:1.2969197;stroke-opacity:1"
     d="m 1730.8444,1862.1315 v -78.3446 l 32.0987,0.882 c 17.6543,0.4852 37.3487,1.513 43.7655,2.2843 52.1944,6.277 71.9847,27.2172 71.9847,76.1681 0,17.2241 -1.9313,26.6602 -7.8919,38.5603 -7.2556,14.4848 -23.3544,27.8936 -39.4646,32.8697 -10.4673,3.2323 -21.2019,4.079 -64.5042,5.0867 l -35.9911,0.8374 z m 63.2041,47.9159 c 17.053,-1.4109 23.603,-3.8613 30.3505,-11.3524 11.3656,-12.6188 15.1318,-25.201 12.7274,-42.5192 -2.6126,-18.8169 -7.713,-27.3503 -20.3831,-34.1039 -9.8295,-5.2384 -21.6552,-8.0029 -34.3449,-8.0273 l -10.0511,-0.022 v 48.6347 48.6346 l 3.5664,-0.021 c 1.9616,-0.014 10.1222,-0.5635 18.1348,-1.2263 z"
     id="path71"
     inkscape:connector-curvature="0" />
  <path
     style="fill:#262d30;fill-opacity:1;stroke:#262d30;stroke-width:1.2969197;stroke-opacity:1"
     d="m 1958.3398,1940.5911 c -11.3824,-2.6127 -22.3779,-8.6188 -29.2718,-15.9892 -13.4303,-14.3575 -14.1702,-18.6149 -14.9918,-86.259 l -0.6576,-54.1463 h 18.9518 18.9517 l 0.029,11.3481 c 0.076,30.3784 2.6377,84.851 4.428,94.1714 3.4532,17.9773 9.1753,23.5572 24.0757,23.4803 9.6725,-0.05 14.2691,-2.0536 22.8444,-9.9587 l 5.6879,-5.2427 v -21.6712 c 0,-11.9195 0.3854,-37.5245 0.857,-56.8999 l 0.8566,-35.2273 h 18.5204 c 10.1864,0 18.7426,0.4378 19.0138,0.9726 0.2713,0.5354 0.057,28.6008 -0.4762,62.369 l -0.9695,61.3958 -3.5601,5.1371 c -4.3186,6.2318 -17.4467,18.5675 -22.5914,21.2277 -11.0942,5.7373 -46.52,8.7755 -61.6976,5.2923 z"
     id="path73"
     inkscape:connector-curvature="0" />
  <path
     style="fill:#262d30;fill-opacity:1;stroke:#262d30;stroke-width:1.2969197;stroke-opacity:1"
     d="m 2103.7103,1941.1051 c -4.9931,-0.5298 -11.267,-1.8803 -13.9419,-3.0002 -4.0295,-1.687 -4.8635,-2.6796 -4.8635,-5.7869 0,-3.913 2.6526,-25.2909 3.217,-25.9277 0.1781,-0.2013 6.0929,1.1608 13.1437,3.0267 15.0498,3.9835 37.9635,5.02 46.2383,2.0931 8.0019,-2.8305 11.1317,-12.5628 6.7595,-21.0178 -2.3801,-4.6023 -8.0659,-7.6255 -28.4584,-15.1317 -26.9868,-9.9327 -33.4654,-14.5703 -39.479,-28.263 -2.8366,-6.4589 -3.3577,-23.7233 -0.9645,-31.9554 4.2255,-14.5344 17.9319,-24.7806 38.7206,-28.9438 12.2259,-2.4481 49.9354,-2.6522 56.761,-0.3076 2.481,0.8525 5.2405,3.0052 6.1413,4.7907 2.1496,4.2602 2.2784,25.9385 0.1539,25.9385 -0.8359,0 -6.5233,-0.938 -12.6387,-2.0838 -7.1489,-1.3398 -15.5197,-1.9018 -23.4455,-1.5748 -14.9547,0.6167 -21.4679,3.2978 -25.2726,10.4036 l -2.5701,4.8 2.6894,3.6305 c 4.1615,5.6166 9.4355,8.6103 24.69,14.0155 28.9851,10.2699 37.2051,15.4832 43.2785,27.4458 2.7016,5.3211 3.1555,7.9446 3.0172,17.4404 -0.4761,32.6641 -14.5896,46.6257 -50.8997,50.3518 -14.7242,1.5109 -28.4004,1.5288 -42.2765,0.057 z"
     id="path75"
     inkscape:connector-curvature="0" />
  <path
     style="fill:#262d30;fill-opacity:1;stroke:#262d30;stroke-width:1.2969197;stroke-opacity:1"
     d="m 2261.286,1876.9261 v -62.9002 h -19.4537 -19.4539 v -14.9283 -14.9275 l 58.0371,0.3371 58.0372,0.3378 0.3667,14.5904 0.3667,14.5905 h -18.1994 -18.1994 v 62.9002 62.901 h -20.7507 -20.7506 z"
     id="path77"
     inkscape:connector-curvature="0" />
  <path
     style="fill:#262d30;fill-opacity:1;stroke:#262d30;stroke-width:1.2969197;stroke-opacity:1"
     d="m 2366.3366,1862.0122 v -77.8156 l 19.1294,0.05 c 36.4812,0.092 67.6356,2.1469 76.8426,5.0695 17.0558,5.4138 26.9167,17.0235 28.2169,33.2197 1.2091,15.0635 -4.508,26.6868 -17.3064,35.1842 -3.8608,2.5639 -7.0198,5.2176 -7.0198,5.8983 0,0.6807 1.0677,2.7867 2.3727,4.68 4.0069,5.8134 25.7985,58.4179 28.1545,67.964 l 0.8801,3.5665 h -20.6092 -20.6094 l -4.9754,-15.2388 c -5.8527,-17.9248 -12.6991,-33.3865 -16.7163,-37.7502 -4.2037,-4.5664 -10.205,-6.6695 -19.0351,-6.6695 h -7.8231 v 29.8293 29.8292 h -20.7509 -20.7506 z m 74.4236,-14.8758 c 6.905,-3.3524 10.5909,-11.3732 8.6088,-18.7349 -2.6829,-9.963 -12.4652,-14.3756 -31.868,-14.3756 h -9.6629 v 18.3001 18.3008 l 13.9418,-0.5226 c 10.182,-0.3809 15.3005,-1.1816 18.9803,-2.9678 z"
     id="path79"
     inkscape:connector-curvature="0" />
  <path
     style="fill:#262d30;fill-opacity:1;stroke:#262d30;stroke-width:1.2969197;stroke-opacity:1"
     d="m 2531.0453,1861.977 v -77.8494 l 19.1296,0.3587 19.1295,0.3587 0.3345,77.4907 0.3345,77.4914 h -19.464 -19.4641 z"
     id="path81"
     inkscape:connector-curvature="0" />
  <path
     style="fill:#262d30;fill-opacity:1;stroke:#262d30;stroke-width:1.2969197;stroke-opacity:1"
     d="m 2611.7683,1862.3357 0.3346,-77.4907 53.4977,-0.3386 53.4981,-0.3385 v 14.929 14.929 h -34.3684 -34.3683 v 16.8597 16.8603 h 33.0714 33.0714 v 12.9689 12.9697 h -33.0714 -33.0714 v 20.102 20.1021 h 35.6653 35.6652 v 12.9696 12.9689 h -55.1292 -55.1294 z"
     id="path83"
     inkscape:connector-curvature="0" />
  <path
     style="fill:#262d30;fill-opacity:1;stroke:#262d30;stroke-width:1.2969197;stroke-opacity:1"
     d="m 2759.3031,1862.0122 v -77.8156 h 18.7931 18.793 l 0.3365,63.2252 0.3367,63.2244 32.7471,0.3464 32.7472,0.3465 v 14.244 14.244 h -51.8767 -51.8769 z"
     id="path85"
     inkscape:connector-curvature="0" />
  <path
     style="fill:#262d30;fill-opacity:1;stroke:#262d30;stroke-width:1.2969197;stroke-opacity:1"
     d="m 2894.1828,1862.0122 v -77.8156 h 18.793 18.793 l 0.3366,63.2252 0.3364,63.2244 32.7474,0.3464 32.7473,0.3465 v 14.244 14.244 h -51.8769 -51.8768 z"
     id="path87"
     inkscape:connector-curvature="0" />
  <path
     style="fill:#262d30;fill-opacity:1;stroke:#262d30;stroke-width:1.2969197;stroke-opacity:1"
     d="m 3025.4858,1862.3357 0.3344,-77.4907 54.7948,-0.3386 54.795,-0.3378 v 14.9283 14.929 h -34.3685 -34.3682 v 16.8597 16.8603 h 31.7743 31.7747 v 12.9459 12.9459 l -31.4503,0.3479 -31.4503,0.3472 -0.3581,19.7779 -0.3581,19.7779 h 36.3477 36.3474 v 12.9696 12.9689 h -57.0746 -57.0747 z"
     id="path89"
     inkscape:connector-curvature="0" />
  <path
     style="fill:#262d30;fill-opacity:1;stroke:#262d30;stroke-width:1.2969197;stroke-opacity:1"
     d="m 3430.1248,1601.6552 0.3343,-77.4907 53.4979,-0.3386 53.4979,-0.3385 v 13.6316 13.6323 h -34.3682 -34.3685 v 18.1564 18.157 h 33.0715 33.0714 v 12.9696 12.9689 h -33.0714 -33.0715 v 20.1021 20.1028 h 35.6654 35.6653 v 12.9689 12.9689 h -55.1294 -55.1292 z"
     id="path91"
     inkscape:connector-curvature="0" />
  <path
     style="fill:#262d30;fill-opacity:1;stroke:#262d30;stroke-width:1.2969197;stroke-opacity:1"
     d="m 3468.1163,1511.519 c 2.2672,-7.6068 12.2875,-26.8269 14.6437,-28.0876 2.9973,-1.6044 11.5248,-1.7841 27.1032,-0.5708 l 10.6673,0.8302 -11.7051,12.6951 c -14.1771,15.3768 -18.9446,18.0514 -32.174,18.0514 -9.1462,0 -9.3809,-0.081 -8.5351,-2.9183 z"
     id="path93"
     inkscape:connector-curvature="0" />
  <path
     style="fill:#262d30;fill-opacity:1;stroke:#262d30;stroke-width:1.2969197;stroke-opacity:1"
     d="m 3322.1663,1616.2456 v -62.9009 h -19.4537 -19.4539 v -14.9146 -14.9147 h 59.6583 59.6583 v 14.9147 14.9146 h -19.4537 -19.4538 v 62.9009 62.9003 h -20.7508 -20.7507 z"
     id="path95"
     inkscape:connector-curvature="0" />
  <path
     style="fill:#262d30;fill-opacity:1;stroke:#262d30;stroke-width:1.2969197;stroke-opacity:1"
     d="m 3192.7811,1498.226 8.0752,-16.2114 h 19.8904 19.8904 l -2.5848,3.5666 c -1.4216,1.9616 -7.4783,8.6009 -13.4591,14.7536 -9.7626,10.0442 -11.5688,11.3366 -17.6695,12.6455 -3.7376,0.8014 -10.2656,1.457 -14.5066,1.457 h -7.7111 z"
     id="path97"
     inkscape:connector-curvature="0" />
  <path
     style="fill:#262d30;fill-opacity:1;stroke:#262d30;stroke-width:1.2969197;stroke-opacity:1"
     d="m 3148.379,1601.331 v -77.8156 h 53.8676 53.8677 l -0.3697,13.2938 -0.3696,13.2931 -32.777,0.7863 c -18.0274,0.4327 -33.1221,1.1314 -33.5439,1.5533 -0.4219,0.4219 -1.076,8.3845 -1.4536,17.6949 l -0.6865,16.9279 h 33.2578 33.2578 v 12.7677 12.7676 l -18.481,0.8453 c -10.1648,0.465 -24.7551,0.8474 -32.4232,0.8503 h -13.9419 v 18.8054 18.8054 h 20.4267 c 11.2344,0 26.992,0.3838 35.0166,0.846 l 14.5905,0.8402 v 12.7712 12.7713 h -55.1191 -55.1192 z"
     id="path99"
     inkscape:connector-curvature="0" />
  <path
     style="fill:#262d30;fill-opacity:1;stroke:#262d30;stroke-width:1.2969197;stroke-opacity:1"
     d="m 3067.9701,1601.331 v -77.8156 h 18.8053 18.8054 v 77.8156 77.8149 h -18.8054 -18.8053 z"
     id="path101"
     inkscape:connector-curvature="0" />
  <path
     style="fill:#262d30;fill-opacity:1;stroke:#262d30;stroke-width:1.2969197;stroke-opacity:1"
     d="m 2905.855,1601.331 v -77.8156 l 23.669,0.05 c 53.152,0.1064 75.4804,2.9255 85.8599,10.8428 9.8758,7.5321 14.8294,26.7155 10.6294,41.1637 -3.0646,10.5416 -8.2327,16.8222 -18.0155,21.8947 l -8.3978,4.3536 5.4446,6.6846 c 8.3545,10.257 27.1894,57.4943 26.3475,66.0787 l -0.3842,3.9166 -18.826,0.3572 -18.8258,0.3573 -5.4922,-17.2169 c -8.5967,-26.9484 -15.0685,-38.7191 -23.7593,-43.2136 -2.0316,-1.0502 -7.3605,-2.0507 -11.842,-2.2232 l -8.1484,-0.3127 -0.3473,31.4501 -0.3472,31.4509 h -18.7824 -18.7823 z m 55.4135,-12.3198 c 13.4566,-1.2852 20.7727,-4.0266 23.1824,-8.6865 2.885,-5.5791 1.975,-18.3159 -1.5609,-21.8515 -2.8423,-2.8428 -15.4979,-5.8847 -30.0214,-7.2173 l -9.4028,-0.8625 v 19.4163 c 0,10.6796 0.3959,19.8124 0.8798,20.2969 0.4841,0.4837 2.6727,0.6088 4.8636,0.2774 2.1908,-0.3306 7.6176,-0.9488 12.0593,-1.3728 z"
     id="path103"
     inkscape:connector-curvature="0" />
  <path
     style="fill:#262d30;fill-opacity:1;stroke:#262d30;stroke-width:1.2969197;stroke-opacity:1"
     d="m 2755.4124,1601.1448 v -78.0024 l 28.8564,0.9056 c 53.3827,1.6748 65.3222,4.1546 77.521,16.1014 9.2699,9.0781 11.6424,15.9022 11.6424,33.4878 0,14.2613 -2.2683,22.1118 -8.658,29.9637 -10.0357,12.3328 -18.8412,16.0632 -47.7402,20.2278 l -19.4716,2.8054 -0.3512,26.2563 -0.3509,26.2555 h -20.724 -20.7239 z m 62.4902,-6.4704 c 4.8392,-1.0379 8.1346,-2.7536 11.2246,-5.8437 4.3397,-4.3399 4.3707,-4.4557 3.9071,-14.6637 -0.4212,-9.2737 -0.8392,-10.6775 -4.2372,-14.2239 -3.9268,-4.0985 -11.5491,-7.1281 -21.5078,-8.5492 -3.21,-0.4578 -6.8576,-1.1205 -8.1059,-1.4735 -2.1013,-0.5937 -2.2696,1.0955 -2.2696,22.791 v 23.4315 h 7.0693 c 3.888,0 10.152,-0.6606 13.9195,-1.4685 z"
     id="path105"
     inkscape:connector-curvature="0" />
  <path
     style="fill:#262d30;fill-opacity:1;stroke:#262d30;stroke-width:1.2969197;stroke-opacity:1"
     d="m 2631.5566,1680.835 c -14.4343,-1.9141 -32.8671,-10.6868 -42.3217,-20.1409 -7.1173,-7.1173 -14.2852,-21.0386 -16.8768,-32.7762 -1.0237,-4.6376 -1.694,-15.6414 -1.6586,-27.2352 0.092,-30.3878 5.4489,-45.8918 20.8245,-60.2746 12.1825,-11.3962 21.5828,-15.4975 39.3649,-17.1744 17.3275,-1.6338 38.7015,0.1099 49.9929,4.0783 19.3742,6.8097 36.6291,27.9993 40.6909,49.9716 1.9977,10.8068 1.7316,39.8576 -0.4599,50.1973 -5.0237,23.7024 -22.737,42.9483 -45.7591,49.7178 -11.8502,3.4846 -32.2029,5.1745 -43.7971,3.6363 z m 28.5323,-31.4027 c 9.793,-4.3565 17.0784,-14.566 20.1748,-28.2738 1.8156,-8.0381 1.8072,-32.9509 -0.014,-41.0142 -2.9763,-13.1773 -9.2512,-21.2506 -20.585,-26.4841 -5.7175,-2.6408 -8.4003,-3.1015 -15.5629,-2.6738 -13.858,0.8273 -22.6491,8.2717 -29.0085,24.5649 -3.4648,8.8769 -4.7614,32.9617 -2.3566,43.7772 6.0627,27.2668 25.6856,39.7419 47.3521,30.1038 z"
     id="path107"
     inkscape:connector-curvature="0" />
  <path
     style="fill:#262d30;fill-opacity:1;stroke:#262d30;stroke-width:1.2969197;stroke-opacity:1"
     d="m 2414.3226,1601.331 v -77.8156 l 24.9656,0.05 c 38.9091,0.077 63.836,1.8042 72.3653,5.0142 16.8023,6.3238 23.1855,14.7192 24.2576,31.9037 1.1784,18.8887 -4.3818,29.628 -19.4562,37.5762 -2.6748,1.411 -4.8635,3.0498 -4.8635,3.6428 0,0.593 1.7145,3.2324 3.8098,5.8652 4.0185,5.0502 11.0812,21.4893 22.6462,52.713 l 6.988,18.8658 h -21.2166 -21.2165 l -4.7274,-15.2381 c -8.1786,-26.3648 -16.0065,-40.3191 -25.319,-45.1349 -1.9987,-1.0336 -6.5605,-1.8789 -10.1372,-1.8789 -5.1024,0 -6.7928,0.5405 -7.8461,2.5085 -0.7565,1.4139 -1.3465,11.1792 -1.3517,22.372 -0.01,10.9247 -0.3813,23.803 -0.8361,28.6174 l -0.8267,8.754 h -18.6177 -18.6178 z m 66.6649,-13.0918 c 2.8155,-0.782 7.6937,-3.8929 10.9944,-7.011 5.1383,-4.8553 5.9329,-6.3065 5.9329,-10.8355 0,-6.6947 -3.8591,-10.9564 -13.0287,-14.3871 -8.9993,-3.3667 -30.058,-5.0861 -30.8722,-2.52 -0.315,0.9926 -0.8696,9.5374 -1.2323,18.9886 l -0.6596,17.1846 11.9022,-0.01 c 6.5461,0 14.1797,-0.6397 16.9633,-1.4124 z"
     id="path109"
     inkscape:connector-curvature="0" />
  <path
     style="fill:#262d30;fill-opacity:1;stroke:#262d30;stroke-width:1.2969197;stroke-opacity:1"
     d="m 2267.7706,1601.1262 v -78.019 l 31.4502,0.8589 c 17.3113,0.473 35.9486,1.6783 41.4557,2.6818 19.0204,3.4659 32.2893,11.7052 38.1536,23.6923 3.3038,6.7522 3.5584,8.4514 3.6353,24.2623 0.081,16.6426 0,17.1522 -3.9057,24.1344 -4.6537,8.3235 -15.1729,16.2106 -26.4856,19.8591 -7.7831,2.5107 -24.184,5.4261 -37.9388,6.7443 l -8.7541,0.8388 v 26.4834 26.4834 h -18.8052 -18.8054 z m 59.9423,-6.3368 c 2.6527,-0.7367 6.613,-2.8456 8.8007,-4.6864 11.3119,-9.5181 10.7631,-26.7112 -1.0447,-32.7353 -7.2093,-3.678 -19.0659,-6.8421 -23.8946,-6.3763 -5.416,0.5218 -5.8379,2.3849 -6.0396,26.671 l -0.1535,18.4805 h 8.7541 c 4.815,0 10.9247,-0.6103 13.5776,-1.347 z"
     id="path111"
     inkscape:connector-curvature="0" />
  <path
     style="fill:#262d30;fill-opacity:1;stroke:#262d30;stroke-width:1.2969197;stroke-opacity:1"
     d="m 1995.9618,1677.3964 c -0.8257,-2.1513 54.8304,-150.2001 56.9879,-151.591 0.8127,-0.5239 12.3569,-0.9617 25.6541,-0.9725 l 24.1764,-0.021 2.2202,5.5116 c 4.3326,10.7558 39.9544,103.1208 48.107,124.7381 4.5542,12.0761 7.9493,22.29 7.5444,22.6961 -0.4049,0.4061 -10.1424,0.7389 -21.6393,0.7389 h -20.9028 l -4.9879,-15.9102 -4.9877,-15.9101 -31.2936,0.3472 -31.2936,0.3471 -5.4644,15.563 -5.4645,15.563 -18.9791,0.3594 c -15.3313,0.2896 -19.1134,0.01 -19.6771,-1.4606 z m 98.916,-62.1599 c 1.7731,-1.1407 1.2312,-3.2999 -8.7806,-34.9808 -3.5503,-11.2345 -7.01,-20.4262 -7.6883,-20.4262 -2.0722,0 -5.8526,8.7324 -13.6918,31.6269 -9.2634,27.0534 -9.8941,25.8365 13.0548,25.2025 8.5595,-0.2364 16.2572,-0.8762 17.1059,-1.4224 z"
     id="path113"
     inkscape:connector-curvature="0" />
  <path
     style="fill:#262d30;fill-opacity:1;stroke:#262d30;stroke-width:1.2969197;stroke-opacity:1"
     d="m 1871.2273,1601.6552 0.3343,-77.4907 20.4265,-0.3573 20.4265,-0.3572 v 62.9333 62.934 h 31.7745 31.7746 v 14.9139 14.9147 h -52.5354 -52.5356 z"
     id="path115"
     inkscape:connector-curvature="0" />
  <path
     style="fill:#262d30;fill-opacity:1;stroke:#262d30;stroke-width:1.2969197;stroke-opacity:1"
     d="m 1646.546,1601.331 v -77.8156 h 53.8221 53.8223 v 13.618 13.6179 h -34.3684 -34.3684 v 18.1564 18.157 h 32.423 32.4231 v 12.9473 12.9467 l -32.6028,0.3464 -32.6024,0.3465 0.2204,12.9696 c 0.1212,7.1324 0.5689,15.7412 0.9951,19.1295 l 0.7747,6.16 h 19.0831 c 10.4958,0 26.1781,0.3816 34.8497,0.8481 l 15.7667,0.8475 v 12.7698 12.7698 h -55.1191 -55.1191 z"
     id="path117"
     inkscape:connector-curvature="0" />
  <path
     style="fill:#262d30;fill-opacity:1;stroke:#262d30;stroke-width:1.2969197;stroke-opacity:1"
     d="m 1463.6804,1601.1793 v -77.9665 l 28.8564,0.8705 c 51.7219,1.5604 71.702,4.1818 85.4886,11.215 3.0874,1.5749 8.825,6.1571 12.7499,10.183 12.9061,13.2363 17.6098,25.6194 18.9966,50.0104 1.0565,18.5768 -0.8924,29.9967 -7.4237,43.5032 -14.853,30.7141 -40.9451,40.151 -111.0092,40.151 h -27.6586 z m 72.0178,46.1276 c 14.4574,-3.7657 24.1613,-12.1955 29.5873,-25.7028 2.0917,-5.2068 2.6843,-9.6194 2.7226,-20.2731 0.044,-12.3393 -0.3042,-14.3849 -3.7115,-21.789 -4.6313,-10.0636 -13.5545,-18.4589 -23.8365,-22.4259 -5.5684,-2.1484 -11.1577,-3.0059 -22.6334,-3.4717 l -15.2387,-0.6188 v 48.1458 48.1459 h 12.6967 c 7.2832,0 15.9869,-0.8575 20.4135,-2.0104 z"
     id="path119"
     inkscape:connector-curvature="0" />
  <path
     style="fill:#262d30;fill-opacity:1;stroke:#262d30;stroke-width:1.2969197;stroke-opacity:1"
     d="m 1468.576,1414.8988 c -1.1062,-2.5876 -1.5249,-22.9721 -1.5249,-74.249 0,-71.9957 0.3642,-77.8149 4.8682,-77.8149 5.2987,0 5.3787,1.1371 5.3787,76.3931 0,39.6572 -0.4489,73.7092 -0.9973,75.6708 -0.6639,2.3734 -1.8674,3.5666 -3.5987,3.5666 -1.6034,0 -3.1861,-1.3679 -4.126,-3.5666 z"
     id="path121"
     inkscape:connector-curvature="0" />
  <path
     style="fill:#262d30;fill-opacity:1;stroke:#262d30;stroke-width:1.2969197;stroke-opacity:1"
     d="m 1523.3388,1340.6498 v -77.8149 h 6.5489 c 12.8029,0 13.5643,0.9459 46.0847,57.2643 36.286,62.8399 45.8445,78.2217 47.5487,76.5175 0.839,-0.8388 1.6135,-24.7102 2.1221,-65.4073 0.8308,-66.5013 1,-68.3745 6.1791,-68.3745 4.3067,0 4.7356,6.5402 5.3497,81.5791 l 0.6094,74.4453 -7.5788,-0.8906 c -12.2871,-1.444 -11.4414,-0.294 -54.9299,-74.7249 -17.2959,-29.6021 -32.212,-54.6256 -33.1468,-55.6075 -1.4151,-1.4864 -1.8182,-0.6181 -2.4076,5.1882 -0.7984,7.862 -2.1033,72.5476 -2.1095,104.5656 l -0.01,21.0753 h -7.1331 -7.1329 z"
     id="path123"
     inkscape:connector-curvature="0" />
  <path
     style="fill:#262d30;fill-opacity:1;stroke:#262d30;stroke-width:1.2969197;stroke-opacity:1"
     d="m 1691.4005,1417.6905 c -9.9478,-2.4064 -11.1346,-3.5321 -11.1346,-10.5588 0,-4.9682 0.3353,-5.7201 2.2697,-5.0904 14.4327,4.6936 21.6094,6.1261 30.8019,6.147 20.8467,0.05 33.3499,-8.4615 36.9244,-25.1285 3.1237,-14.566 -2.3149,-21.5475 -30.9425,-39.7232 -31.3243,-19.8879 -38.9965,-28.7087 -38.9965,-44.8367 0,-14.3626 8.4433,-25.9687 24.3884,-33.5237 8.3006,-3.9325 9.2624,-4.0863 25.4861,-4.0863 14.6524,0 17.4542,0.3479 21.3992,2.6566 3.7035,2.1686 4.6134,3.5414 4.9417,7.4573 0.4623,5.5152 0.5551,5.4908 -10.349,2.6954 -9.9973,-2.5638 -27.7412,-1.8839 -35.4457,1.3571 -10.6083,4.4629 -16.2116,12.3917 -16.2116,22.9412 0,12.8417 6.5718,19.8038 32.2325,34.1484 33.4616,18.7048 45.4577,41.1141 33.759,63.0627 -8.7608,16.437 -25.9338,24.6986 -50.8165,24.4456 -5.8496,-0.057 -14.0875,-0.943 -18.3065,-1.9637 z"
     id="path125"
     inkscape:connector-curvature="0" />
  <path
     style="fill:#262d30;fill-opacity:1;stroke:#262d30;stroke-width:1.2969197;stroke-opacity:1"
     d="m 1835.8964,1346.4863 v -71.9792 h -19.3696 c -20.6871,0 -26.0227,-1.0242 -26.0227,-4.9969 0,-5.876 1.3522,-6.0269 53.9751,-6.0269 44.3025,0 49.916,0.2307 51.8109,2.1254 3.0861,3.0857 1.3251,7.1245 -3.5298,8.0956 -2.2079,0.4413 -12.6958,0.8028 -23.3063,0.8028 h -19.2916 v 71.9792 71.9791 h -7.1329 -7.1331 z"
     id="path127"
     inkscape:connector-curvature="0" />
  <path
     style="fill:#262d30;fill-opacity:1;stroke:#262d30;stroke-width:1.2969197;stroke-opacity:1"
     d="m 1930.2733,1414.8988 c -1.1143,-2.5962 -1.531,-22.804 -1.531,-74.249 0,-72.0352 0.3626,-77.8149 4.8805,-77.8149 5.2986,0 5.3786,1.1371 5.3786,76.3931 0,39.6572 -0.4488,73.7092 -0.9973,75.6708 -0.6638,2.3734 -1.8674,3.5666 -3.5987,3.5666 -1.602,0 -3.1893,-1.37 -4.1321,-3.5666 z"
     id="path129"
     inkscape:connector-curvature="0" />
  <path
     style="fill:#262d30;fill-opacity:1;stroke:#262d30;stroke-width:1.2969197;stroke-opacity:1"
     d="m 2020.4598,1416.8438 c -0.5772,-0.8913 -1.2189,-33.2816 -1.4261,-71.9784 l -0.3768,-70.3583 h -20.6138 c -23.096,0 -27.2671,-0.884 -27.2671,-5.7796 0,-2.4381 0.8901,-3.4983 3.5665,-4.2466 4.6515,-1.301 94.563,-1.301 99.2144,0 2.6344,0.7368 3.5665,1.8178 3.5665,4.1387 0,1.7273 -0.7294,3.6126 -1.6211,4.1898 -0.8918,0.5772 -11.5425,1.3412 -23.6687,1.6977 l -22.0478,0.6484 -0.6484,70.0341 c -0.3567,38.5186 -1.1206,70.7629 -1.6976,71.6542 -0.5772,0.892 -2.1477,1.6216 -3.4901,1.6216 -1.3424,0 -2.913,-0.7296 -3.4899,-1.6216 z"
     id="path131"
     inkscape:connector-curvature="0" />
  <path
     style="fill:#262d30;fill-opacity:1;stroke:#262d30;stroke-width:0.64845985;stroke-opacity:1"
     d="m 2153.5202,1419.6686 c -11.3081,-2.3842 -17.651,-5.2888 -25.5299,-11.6895 -5.1016,-4.1445 -11.0857,-11.7815 -13.9694,-17.8285 -4.4473,-9.3247 -5.1381,-19.2151 -5.5593,-79.5982 l -0.3337,-47.8239 h 7.2058 7.2057 l 0.036,25.7761 c 0.02,14.1772 0.3005,38.9075 0.6237,54.957 0.7355,36.5226 0.9765,37.9443 8.1451,48.0625 5.2269,7.3776 11.8895,12.2193 20.3759,14.8076 5.3389,1.628 17.3772,2.0169 23.3446,0.754 16.0739,-3.402 27.5517,-16.2861 30.5438,-34.2872 0.5378,-3.2352 0.9009,-21.0292 1.1676,-57.2204 l 0.3873,-52.5254 7.2951,-0.1833 7.2952,-0.1833 -0.01,36.8216 c -0.01,46.985 -1.1348,75.3027 -3.371,84.4829 -2.4543,10.0759 -12.3072,22.1635 -23.2976,28.5822 -8.0447,4.698 -22.2147,8.4342 -31.6117,8.3342 -2.3608,-0.022 -6.838,-0.5822 -9.9495,-1.2384 z"
     id="path133"
     inkscape:connector-curvature="0" />
  <path
     style="fill:#262d30;fill-opacity:1;stroke:#262d30;stroke-width:0.64845985;stroke-opacity:1"
     d="m 2302.9248,1417.523 c -2.1463,-2.5861 -2.2787,-6.3108 -2.6559,-74.7097 l -0.3756,-68.0884 -22.0777,-0.3241 c -25.6405,-0.3767 -25.5841,-0.3645 -25.5841,-5.5598 0,-2.7795 0.1297,-2.9908 2.4316,-3.9547 1.8089,-0.7576 6.5016,-1.1802 18.3191,-1.6503 18.2553,-0.7267 74.9392,-0.1876 80.7333,0.7669 4.7844,0.7885 6.465,2.4324 5.92,5.7912 -0.6926,4.2674 -2.6474,4.5988 -27.1571,4.6031 h -20.5887 l -0.029,54.6328 c -0.03,54.9218 -0.6157,81.9141 -1.8658,86.0377 -0.3709,1.2226 -1.0444,2.4582 -1.4967,2.7457 -1.2868,0.8166 -4.8049,0.6311 -5.5727,-0.294 z"
     id="path135"
     inkscape:connector-curvature="0" />
  <path
     style="fill:#262d30;fill-opacity:1;stroke:#262d30;stroke-width:0.64845985;stroke-opacity:1"
     d="m 2568.328,1418.3065 c -8.6093,-0.8194 -9.4061,-1.0825 -12.9616,-4.2789 -5.2043,-4.6792 -10.3952,-12.9559 -39.5796,-63.1086 -21.6811,-37.2579 -38.2744,-64.1977 -39.5424,-64.1977 -1.5645,0 -2.5551,27.1483 -2.6027,71.3308 -0.042,39.1202 -0.6038,54.1779 -2.1602,57.9019 -0.9274,2.2203 -1.2091,2.405 -3.6646,2.405 -2.442,0 -2.7401,-0.1919 -3.637,-2.3382 -1.7875,-4.2782 -2.1533,-18.7888 -2.1763,-86.3388 l -0.023,-66.9535 h 4.7014 c 6.8112,0 8.8967,0.7842 12.5922,4.7037 5.5064,5.8401 9.3663,12.0475 36.2904,58.3569 33.351,57.3642 41.4148,70.4107 42.7154,69.1104 1.6157,-1.6158 1.8429,-8.6828 2.2068,-68.6253 l 0.3839,-63.2251 7.2952,-0.1833 7.2953,-0.1833 v 78.1606 c 0,62.1434 -0.1663,78.1427 -0.8107,78.0722 -0.4458,-0.05 -3.2908,-0.3242 -6.3225,-0.6124 z"
     id="path137"
     inkscape:connector-curvature="0" />
  <path
     style="fill:#262d30;fill-opacity:1;stroke:#262d30;stroke-width:0.64845985;stroke-opacity:1"
     d="m 2607.5829,1417.4835 c -0.7316,-0.5355 -1.0651,-1.3556 -0.8569,-2.1082 0.4915,-1.7761 47.5675,-116.7057 52.6683,-128.5821 5.1486,-11.9885 8.9796,-19.4825 11.1641,-21.8393 1.5303,-1.6511 1.8598,-1.7258 6.35,-1.4376 3.5096,0.225 5.2596,0.6764 6.7587,1.7438 4.3186,3.0756 8.9194,12.9193 25.1842,53.8846 21.4972,54.1433 37.1549,94.9778 37.1549,96.8977 0,1.4627 -2.1265,2.3166 -5.771,2.3166 -6.3036,0 -8.2977,-3.0153 -17.2368,-26.0615 l -5.3602,-13.8192 -41.4714,-0.1667 -41.4713,-0.1668 -5.0555,13.1364 c -9.193,23.8871 -11.2511,27.0778 -17.4666,27.0778 -1.8661,0 -3.9318,-0.3939 -4.5905,-0.8755 z m 83.7538,-52.9135 c 10.0551,-0.3077 18.5775,-0.7425 18.9384,-0.9653 0.756,-0.4672 -1.5176,-7.2654 -8.6233,-25.7847 -8.5371,-22.2498 -20.5504,-51.9066 -22.8842,-56.4938 -0.784,-1.5411 -1.0867,-1.6999 -1.9218,-1.007 -1.2289,1.0199 -6.8983,12.2587 -10.9447,21.6963 -6.4311,14.9994 -23.6492,59.4019 -23.2714,60.0129 0.9116,1.4749 4.4447,2.0535 15.186,2.4855 6.2413,0.2509 12.2234,0.4924 13.2933,0.5362 1.07,0.043 10.1724,-0.1718 20.2277,-0.4801 z"
     id="path139"
     inkscape:connector-curvature="0" />
  <path
     style="fill:#262d30;fill-opacity:1;stroke:#262d30;stroke-width:0.64845985;stroke-opacity:1"
     d="m 2794.6406,1346.4137 v -71.9454 l -20.6186,-0.1962 c -24.0206,-0.2278 -24.125,-0.2516 -24.125,-5.4311 0,-2.7773 0.1315,-2.9922 2.4316,-3.9683 6.1808,-2.6229 92.5059,-2.8284 99.039,-0.2358 2.3672,0.9394 2.9085,1.7344 2.9213,4.2904 0.014,2.7479 -1.2041,4.1452 -4.2223,4.8453 -1.4171,0.3284 -11.1119,0.6044 -21.544,0.6131 l -18.9674,0.014 v 71.9791 71.9791 h -7.4573 -7.4573 z"
     id="path141"
     inkscape:connector-curvature="0" />
  <path
     style="fill:#262d30;fill-opacity:1;stroke:#262d30;stroke-width:0.64845985;stroke-opacity:1"
     d="m 2884.7767,1340.5434 v -77.8149 h 7.1329 7.1331 v 77.8149 77.8156 h -7.1331 -7.1329 z"
     id="path143"
     inkscape:connector-curvature="0" />
  <path
     style="fill:#262d30;fill-opacity:1;stroke:#262d30;stroke-width:0.64845985;stroke-opacity:1"
     d="m 2993.002,1419.3602 c -5.1546,-1.0788 -15.2254,-5.2664 -21.5831,-8.9753 -14.7326,-8.5937 -25.2123,-26.786 -29.9601,-52.0086 -1.7398,-9.2435 -1.5673,-29.5878 0.3315,-39.0735 3.7364,-18.6652 10.5908,-32.3572 21.0445,-42.0384 11.1945,-10.3677 25.4891,-16.1725 41.7134,-16.9387 9.4259,-0.4457 16.5179,0.4585 24.5835,3.1346 25.5037,8.4607 41.2427,29.6086 45.7859,61.5201 1.2383,8.6987 0.9271,25.5677 -0.6358,34.4403 -3.563,20.2307 -12.0843,37.1888 -22.9645,45.702 -6.6034,5.1666 -17.305,10.2289 -26.7446,12.6512 -6.5467,1.6805 -9.2843,2.032 -17.4885,2.2447 -6.7487,0.1754 -11.0605,-0.029 -14.0822,-0.6584 z m 28.5529,-13.2952 c 14.8262,-4.225 25.3679,-14.1038 33.6048,-31.4918 5.0032,-10.5624 5.6378,-14.0054 5.6746,-30.7874 0.025,-11.4465 -0.2237,-15.987 -1.1541,-21.0746 -1.7711,-9.6855 -4.005,-16.7539 -7.3645,-23.3049 -2.4791,-4.8345 -4.169,-7.0361 -9.5321,-12.4197 -5.6553,-5.6769 -7.3348,-6.9434 -12.6791,-9.5605 -3.3881,-1.6597 -7.8899,-3.4544 -10.0037,-3.9885 -23.8064,-6.014 -47.8134,6.6465 -59.1567,31.1978 -5.2494,11.3617 -8.1144,29.6992 -6.826,43.6902 3.5943,39.026 23.402,60.4384 54.9114,59.3581 5.2337,-0.1797 9.3348,-0.7094 12.5254,-1.6187 z"
     id="path145"
     inkscape:connector-curvature="0" />
  <path
     style="fill:#262d30;fill-opacity:1;stroke:#262d30;stroke-width:0.64845985;stroke-opacity:1"
     d="m 3222.0901,1418.2634 c -7.2104,-0.7533 -9.8802,-2.349 -14.7498,-8.8187 -6.3769,-8.4729 -17.0353,-26.364 -61.8446,-103.8138 -13.0589,-22.571 -13.2646,-22.8787 -13.6639,-20.4262 -0.2231,1.3693 -0.59,22.9161 -0.8157,47.8814 -0.2255,24.966 -0.5974,54.3654 -0.8266,65.3326 l -0.4163,19.9403 h -7.0359 -7.0362 v -77.8156 -77.8149 h 5.6741 c 3.1208,0 6.789,0.3134 8.1516,0.6915 6.7218,1.8667 9.7557,6.4697 48.2654,73.2291 11.2124,19.4379 24.2154,41.9802 28.8956,50.0937 4.6803,8.1136 8.7379,14.7522 9.017,14.7522 0.2793,0 0.5133,-8.3896 0.5202,-18.6429 0.022,-33.1306 1.2594,-102.1024 1.9544,-108.9631 0.8048,-7.9461 1.3686,-9.6424 3.5319,-10.6278 2.45,-1.1163 4.6355,0.1365 5.5125,3.1604 1.3725,4.7325 1.9124,30.1556 1.9351,91.1403 0.019,48.7777 -0.1444,61.4239 -0.7878,61.3556 -0.4458,-0.05 -3.2723,-0.3436 -6.281,-0.6577 z"
     id="path147"
     inkscape:connector-curvature="0" />
  <path
     style="fill:#262d30;fill-opacity:1;stroke:#262d30;stroke-width:0.64845985;stroke-opacity:1"
     d="m 3263.1321,1417.8623 c -0.8516,-0.5463 -1.5443,1.2607 18.5699,-48.4621 32.9259,-81.3944 39.6148,-96.7209 44.6431,-102.2886 2.3817,-2.6371 4.423,-3.3753 11.1749,-4.0409 l 4.2604,-0.4205 7.3218,18.3583 c 32.6099,81.7638 52.6754,132.5289 52.9746,134.0254 0.5443,2.7213 -0.9312,3.5249 -5.8915,3.2094 -6.8334,-0.4349 -7.8534,-1.9637 -17.2335,-25.8228 -3.2952,-8.3817 -6.1696,-15.4286 -6.3879,-15.6601 -0.3843,-0.4082 -81.0762,1.0868 -81.4247,1.5088 -0.095,0.115 -2.2932,5.7538 -4.8845,12.5304 -6.1082,15.9734 -9.8062,23.7154 -12.3512,25.8573 -1.7096,1.4383 -2.6429,1.7006 -6.0261,1.692 -2.2017,0 -4.3371,-0.2242 -4.7453,-0.4866 z m 100.1186,-53.7221 c 2.2291,-0.1956 4.0529,-0.4644 4.0529,-0.5974 0,-0.4736 -5.8322,-15.826 -13.2945,-34.9958 -4.1651,-10.6997 -10.0435,-25.8631 -13.063,-33.6977 -3.0196,-7.834 -5.8013,-14.6185 -6.1815,-15.0764 -0.3802,-0.4578 -1.258,-0.8331 -1.9506,-0.8331 -0.9472,0 -1.8827,1.3492 -3.7728,5.4405 -6.0184,13.0264 -29.826,74.3 -29.826,76.7625 0,2.3138 2.3511,2.9513 12.645,3.4272 10.1653,0.4701 44.3919,0.1833 51.3905,-0.4298 z"
     id="path149"
     inkscape:connector-curvature="0" />
  <path
     style="fill:#262d30;fill-opacity:1;stroke:#262d30;stroke-width:0.64845985;stroke-opacity:1"
     d="m 3436.07,1360.1596 c 0.03,-59.3337 0.643,-89.3585 1.9117,-93.6949 0.3901,-1.3333 1.2973,-2.7385 2.0159,-3.123 1.9614,-1.0502 4.824,-0.1603 5.7048,1.7732 1.6475,3.6154 1.9774,16.506 1.9934,77.8608 l 0.017,63.7111 24.8035,0.029 c 27.5366,0.029 37.2529,0.5664 39.727,2.188 2.0536,1.3455 2.2721,5.416 0.3825,7.1259 -2.1558,1.9508 -8.711,2.3037 -43.0275,2.3174 l -33.5579,0.014 z"
     id="path151"
     inkscape:connector-curvature="0" />
</svg>
