<svg height="49.4925" width="148.59375" xmlns="http://www.w3.org/2000/svg" xmlns:xlink="http://www.w3.org/1999/xlink"><clipPath id="a"><path d="m138.718 575.398h-118.875v-39.594h118.875z"/></clipPath><g fill="#f44336" transform="translate(-107.30373 -181.59718)"><path d="m0 0c-2.925 0-4.447 1.895-4.447 5.158v6.865h1.775v-6.815c0-2.232.93-3.432 2.706-3.432 1.86 0 2.739 1.15 2.739 3.314v6.933h1.776v-6.899c0-3.314-1.607-5.124-4.549-5.124" transform="matrix(1.25 0 0 -1.25 137.90873 214.94968)"/><path d="m0 0h-3.45v-3.804h3.45c1.184 0 2.012.608 2.012 1.893 0 1.235-.811 1.911-2.012 1.911zm1.201-5.326 2.417-4.837h-2.045l-2.351 4.685h-2.672v-4.685h-1.741v11.837h5.191c2.063 0 3.805-1.099 3.805-3.534 0-1.894-.998-3.061-2.604-3.466" transform="matrix(1.25 0 0 -1.25 157.45998 202.01343)"/><path d="m0 0c-1.725 0-3.213.744-4.21 1.91l1.268 1.235c.794-.862 1.961-1.403 3.077-1.403 1.658 0 2.452.574 2.452 1.724 0 .913-.693 1.37-2.672 1.962-2.502.744-3.703 1.37-3.703 3.484 0 2.046 1.725 3.297 3.906 3.297 1.607 0 2.825-.592 3.873-1.607l-1.251-1.268c-.744.761-1.59 1.133-2.757 1.133-1.386 0-1.978-.676-1.978-1.471 0-.828.541-1.234 2.587-1.843 2.334-.711 3.788-1.454 3.788-3.568 0-2.13-1.353-3.585-4.38-3.585" transform="matrix(1.25 0 0 -1.25 173.71248 214.94968)"/><path d="m0 0c-1.724 0-3.213.744-4.21 1.91l1.269 1.235c.794-.862 1.961-1.403 3.077-1.403 1.657 0 2.452.574 2.452 1.724 0 .913-.693 1.37-2.672 1.962-2.503.744-3.703 1.37-3.703 3.484 0 2.046 1.724 3.297 3.906 3.297 1.606 0 2.824-.592 3.872-1.607l-1.251-1.268c-.744.761-1.59 1.133-2.757 1.133-1.386 0-1.978-.676-1.978-1.471 0-.828.541-1.234 2.587-1.843 2.334-.711 3.788-1.454 3.788-3.568 0-2.13-1.352-3.585-4.38-3.585" transform="matrix(1.25 0 0 -1.25 190.57873 214.94968)"/><path d="m0 0c-.287.846-.761 2.215-.896 2.723-.135-.508-.558-1.86-.862-2.74l-.948-2.706h3.654zm2.487-7.119-.999 2.807h-4.734l-.981-2.807h-1.843l4.26 11.837h1.878l4.312-11.837z" transform="matrix(1.25 0 0 -1.25 209.66498 205.81843)"/><path d="m0 0v-3.094h3.399v-1.742h-3.399v-5.259h-1.776v11.837h7.627v-1.742z" transform="matrix(1.25 0 0 -1.25 223.90998 202.09843)"/><g clip-path="url(#a)" transform="matrix(1.25 0 0 -1.25 82.49998 900.84468)"><path d="m0 0h6.072s1.287-6.764 6.046-11.635c4.761-4.873 8.57-6.519 8.57-6.519s-7.022-.031-14.396 6.64c-5.525 5.004-6.292 11.514-6.292 11.514" transform="translate(19.843 553.957)"/><path d="m0 0s12.581.682 19.324-6.784c4.423-4.904 4.575-9.208 4.575-9.208l-6.622-.151s-.483 4.682-3.334 8.715c-5.129 7.256-13.943 7.428-13.943 7.428" transform="translate(114.819 575.382)"/></g></g></svg>