<svg height="19.1" viewBox="0 0 16.2 19.1" width="16.200001" xmlns="http://www.w3.org/2000/svg"><g transform="translate(-3.864407 -1.849153)"><path d="m12 15c-4.42 0-8 1.79-8 4v2h16v-2c0-2.21-3.58-4-8-4m-4-6a4 4 0 0 0 4 4 4 4 0 0 0 4-4m-4.5-7c-.3 0-.5.21-.5.5v3h-1v-2.5s-2.25.86-2.25 3.75c0 0-.75.14-.75 1.25h10c-.05-1.11-.75-1.25-.75-1.25 0-2.89-2.25-3.75-2.25-3.75v2.5h-1v-3c0-.29-.19-.5-.5-.5z" fill="#4e4e4e"/><path d="m11.5 2c-.3 0-.5.21-.5.5v3h-1v-2.5s-2.25.86-2.25 3.75c0 0-.75.14-.75 1.25h5v-6zm-3.5 7a4 4 0 0 0 4 4v-4zm4 6c-4.42 0-8 1.79-8 4v2h8z" fill="#f44336"/></g></svg>