<svg enable-background="new 0 0 1024 155.032" height="155.032" viewBox="0 0 1024 155.032" width="1024" xmlns="http://www.w3.org/2000/svg"><g fill="#20459a"><path d="m41.937 125.663c-7.404.096-13.833-1.074-19.288-3.508-5.457-2.434-10.667-6.086-15.635-10.959-.488-.388-.902-.876-1.242-1.461-.343-.584-.512-1.265-.512-2.045 0-1.17.461-2.24 1.388-3.215.925-.973 1.973-1.461 3.142-1.461s2.24.488 3.215 1.461c3.799 4.092 8.109 7.21 12.932 9.352 4.822 2.145 10.009 3.215 15.562 3.215 4.676 0 8.84-.73 12.494-2.191 3.653-1.462 6.55-3.556 8.694-6.283 2.142-2.727 3.215-5.894 3.215-9.498 0-4.48-1.219-8.11-3.653-10.887-2.436-2.775-5.651-5.063-9.644-6.867-3.996-1.802-8.427-3.434-13.297-4.895-3.996-1.169-7.795-2.507-11.397-4.019-3.605-1.509-6.82-3.361-9.644-5.553-2.827-2.192-5.019-4.895-6.576-8.109-1.559-3.215-2.338-7.11-2.338-11.69 0-5.162 1.363-9.74 4.091-13.735 2.726-3.993 6.599-7.135 11.617-9.425 5.016-2.288 10.836-3.434 17.461-3.434 5.747 0 11.274.975 16.585 2.922 5.308 1.95 9.521 4.822 12.639 8.621 1.461 1.56 2.192 2.973 2.192 4.237 0 .975-.488 1.95-1.461 2.922-.975.975-2.046 1.461-3.215 1.461-.975 0-1.804-.34-2.484-1.023-1.658-2.045-3.751-3.872-6.283-5.479-2.535-1.607-5.333-2.849-8.402-3.726-3.068-.876-6.26-1.315-9.571-1.315-4.58 0-8.694.708-12.347 2.119-3.653 1.413-6.527 3.434-8.621 6.064-2.096 2.63-3.142 5.797-3.142 9.498 0 4.091 1.169 7.452 3.507 10.082s5.407 4.799 9.206 6.502c3.799 1.706 7.84 3.288 12.128 4.749 4.187 1.169 8.206 2.509 12.055 4.019 3.847 1.511 7.256 3.386 10.229 5.625 2.97 2.242 5.308 5.066 7.014 8.475 1.703 3.411 2.557 7.697 2.557 12.859 0 4.968-1.413 9.449-4.237 13.443-2.827 3.994-6.699 7.16-11.617 9.498-4.922 2.339-10.694 3.556-17.317 3.654z"/><path d="m97.754 38.428c-2.045 0-3.58-.461-4.603-1.388-1.023-.924-1.534-2.265-1.534-4.018v-1.461c0-1.753.559-3.091 1.68-4.018 1.119-.925 2.653-1.388 4.603-1.388 1.849 0 3.288.463 4.311 1.388 1.022.927 1.534 2.265 1.534 4.018v1.461c0 1.753-.512 3.094-1.534 4.018-1.023.927-2.509 1.388-4.457 1.388zm4.384 81.389c0 1.17-.438 2.193-1.315 3.068-.877.877-1.9 1.316-3.069 1.316-1.267 0-2.315-.439-3.142-1.316-.829-.875-1.242-1.898-1.242-3.068v-67.215c0-1.169.413-2.192 1.242-3.068.827-.877 1.875-1.315 3.142-1.315 1.265 0 2.313.438 3.142 1.315.827.876 1.242 1.899 1.242 3.068z"/><path d="m155.471 47.78c4.285 0 8.278.755 11.981 2.265 3.701 1.511 6.941 3.459 9.717 5.845 2.776 2.388 4.943 4.92 6.502 7.598 1.557 2.681 2.338 5.238 2.338 7.671l-2.338-3.507v-13.589c0-1.265.413-2.338 1.242-3.214.827-.877 1.875-1.315 3.142-1.315 1.265 0 2.313.438 3.142 1.315.827.876 1.242 1.95 1.242 3.214v63.271c0 7.792-1.607 14.368-4.822 19.726-3.215 5.357-7.576 9.426-13.078 12.201-5.504 2.777-11.763 4.166-18.776 4.166-3.411 0-6.991-.439-10.74-1.316-3.751-.877-6.966-1.998-9.644-3.361-2.681-1.365-4.215-2.775-4.603-4.236-.683-.877-1-1.73-.95-2.557.048-.83.461-1.535 1.242-2.119.876-.684 1.875-.756 2.996-.219 1.119.533 2.751 1.242 4.895 2.117.876.293 2.167.73 3.872 1.316 1.703.584 3.701 1.096 5.991 1.533 2.288.439 4.651.658 7.087.658 8.768 0 15.585-2.51 20.457-7.525 4.87-5.018 7.306-11.617 7.306-19.799v-14.027l1.607.438c-.877 3.507-2.338 6.576-4.384 9.205-2.046 2.631-4.434 4.848-7.16 6.648-2.728 1.805-5.65 3.168-8.767 4.092-3.119.926-6.235 1.389-9.352 1.389-6.722 0-12.786-1.703-18.192-5.115-5.406-3.408-9.669-8.035-12.785-13.881-3.119-5.845-4.676-12.516-4.676-20.019 0-7.401 1.557-14.05 4.676-19.945 3.116-5.893 7.354-10.521 12.712-13.881 5.357-3.363 11.398-5.043 18.12-5.043zm.876 8.183c-5.26 0-10.009 1.34-14.247 4.018-4.238 2.681-7.55 6.333-9.937 10.959-2.388 4.628-3.58 9.863-3.58 15.708s1.191 11.105 3.58 15.781c2.386 4.676 5.699 8.354 9.937 11.032 4.237 2.68 8.986 4.018 14.247 4.018 5.356 0 10.13-1.314 14.32-3.945 4.188-2.629 7.5-6.258 9.936-10.885 2.434-4.626 3.653-9.959 3.653-16.001 0-6.038-1.219-11.372-3.653-16-2.436-4.625-5.749-8.231-9.936-10.813-4.189-2.58-8.963-3.872-14.32-3.872z"/><path d="m250.741 47.78c6.429 0 11.566 1.292 15.416 3.872 3.847 2.582 6.624 6.089 8.329 10.521 1.703 4.434 2.557 9.329 2.557 14.685v42.959c0 1.17-.438 2.193-1.315 3.068-.876.877-1.899 1.316-3.068 1.316-1.365 0-2.436-.439-3.215-1.316-.781-.875-1.169-1.898-1.169-3.068v-42.521c0-3.895-.635-7.452-1.899-10.667-1.267-3.214-3.338-5.794-6.21-7.744-2.875-1.948-6.648-2.922-11.325-2.922-4.189 0-8.16.975-11.909 2.922-3.751 1.95-6.794 4.53-9.132 7.744-2.338 3.215-3.507 6.772-3.507 10.667v42.521c0 1.17-.438 2.193-1.315 3.068-.876.877-1.899 1.316-3.068 1.316-1.365 0-2.436-.439-3.215-1.316-.781-.875-1.169-1.898-1.169-3.068v-65.462c0-1.169.413-2.192 1.242-3.068.826-.877 1.875-1.315 3.142-1.315 1.265 0 2.312.438 3.142 1.315.826.876 1.242 1.899 1.242 3.068v12.274l-3.36 5.261c.194-3.117 1.191-6.112 2.995-8.987 1.802-2.872 4.114-5.454 6.941-7.744 2.824-2.288 5.966-4.091 9.425-5.407 3.454-1.314 6.938-1.972 10.445-1.972z"/><path d="m360.621 49.534c1.265 0 2.313.438 3.142 1.315.827.876 1.242 1.95 1.242 3.214v65.754c0 1.17-.438 2.193-1.315 3.068-.876.877-1.899 1.316-3.068 1.316-1.365 0-2.436-.439-3.215-1.316-.781-.875-1.169-1.898-1.169-3.068v-17.388l2.484-1.169c0 2.729-.756 5.504-2.265 8.328-1.511 2.827-3.58 5.457-6.21 7.891-2.63 2.438-5.724 4.41-9.279 5.918-3.557 1.51-7.429 2.266-11.617 2.266-6.527 0-12.397-1.703-17.607-5.115-5.212-3.408-9.304-8.084-12.274-14.027-2.973-5.939-4.457-12.613-4.457-20.018 0-7.599 1.509-14.295 4.53-20.092 3.019-5.795 7.11-10.35 12.274-13.663 5.162-3.311 10.959-4.968 17.388-4.968 4.188 0 8.11.73 11.763 2.191s6.843 3.459 9.571 5.991c2.726 2.534 4.87 5.432 6.43 8.694 1.557 3.265 2.338 6.649 2.338 10.156l-3.069-2.192v-18.557c0-1.265.388-2.338 1.169-3.214.778-.877 1.849-1.315 3.214-1.315zm-30.393 67.945c5.162 0 9.74-1.338 13.735-4.018 3.993-2.678 7.135-6.379 9.425-11.105 2.288-4.724 3.434-10.01 3.434-15.854 0-5.747-1.146-10.909-3.434-15.489-2.29-4.578-5.432-8.23-9.425-10.959-3.996-2.726-8.573-4.091-13.735-4.091-5.066 0-9.621 1.315-13.662 3.945-4.043 2.63-7.21 6.235-9.498 10.813-2.29 4.58-3.434 9.84-3.434 15.781 0 5.844 1.119 11.13 3.36 15.854 2.24 4.727 5.381 8.428 9.425 11.105 4.042 2.68 8.644 4.018 13.809 4.018z"/><path d="m442.302 49.972c1.265 0 2.312.438 3.142 1.315.826.876 1.242 1.899 1.242 3.068v41.206c0 9.645-2.728 17-8.183 22.064-5.457 5.066-12.811 7.598-22.064 7.598-9.157 0-16.438-2.531-21.845-7.598-5.407-5.064-8.11-12.42-8.11-22.064v-41.206c0-1.169.413-2.192 1.242-3.068.826-.877 1.875-1.315 3.142-1.315 1.265 0 2.312.438 3.142 1.315.826.876 1.242 1.899 1.242 3.068v41.206c0 7.014 1.875 12.348 5.626 16 3.749 3.654 8.936 5.48 15.562 5.48 6.722 0 11.982-1.826 15.781-5.48 3.799-3.652 5.699-8.986 5.699-16v-41.206c0-1.169.388-2.192 1.169-3.068.777-.877 1.848-1.315 3.213-1.315z"/><path d="m467.579 48.803c1.461 0 2.63.635 3.507 1.9l51.727 66.923c.681.781 1.022 1.658 1.022 2.631 0 1.168-.438 2.191-1.314 3.068s-1.899 1.314-3.068 1.314c-1.365 0-2.583-.633-3.653-1.898l-51.873-66.924c-.584-.681-.876-1.557-.876-2.63 0-1.265.461-2.313 1.388-3.142.923-.827 1.971-1.242 3.14-1.242zm0 75.836c-.975 0-1.925-.342-2.85-1.023-.927-.68-1.388-1.654-1.388-2.922 0-1.07.34-1.994 1.023-2.775l24.694-31.709 4.822 7.014-22.795 29.662c-.876 1.169-2.045 1.753-3.506 1.753zm51.873-75.836c1.265 0 2.265.365 2.995 1.096.73.73 1.096 1.632 1.096 2.703 0 .489-.073.975-.219 1.461-.146.489-.416.927-.804 1.315l-24.695 32.438-4.529-7.014 22.502-30.101c1.071-1.263 2.289-1.898 3.654-1.898z"/></g><path d="m540.346 87.525c-1.657 0-2.995-.511-4.019-1.534-1.022-1.023-1.534-2.361-1.534-4.019v-3.214c0-1.656.512-2.996 1.534-4.019 1.023-1.023 2.361-1.534 4.019-1.534h1.022c1.655 0 2.996.511 4.019 1.534s1.534 2.363 1.534 4.019v3.214c0 1.657-.511 2.995-1.534 4.019-1.022 1.023-2.363 1.534-4.019 1.534z"/><g fill="#e9222e"><path d="m573.368 124.202c-1.365 0-2.461-.439-3.287-1.316-.829-.875-1.242-1.898-1.242-3.068v-93.518c0-1.169.438-2.192 1.315-3.068.876-.877 1.899-1.315 3.068-1.315h53.188c1.265 0 2.313.416 3.142 1.242.827.829 1.242 1.877 1.242 3.142 0 1.169-.415 2.169-1.242 2.996-.828.829-1.877 1.242-3.142 1.242h-49.242l.584-.876v38.868l-.73-1.315h42.813c1.265 0 2.312.416 3.142 1.242.826.829 1.242 1.827 1.242 2.996 0 1.267-.416 2.29-1.242 3.068-.829.781-1.877 1.169-3.142 1.169h-43.105l1.022-1.169v45.297c0 1.17-.415 2.193-1.242 3.068-.828.875-1.876 1.315-3.142 1.315z"/><path d="m707.069 49.534c1.265 0 2.312.438 3.142 1.315.826.876 1.242 1.95 1.242 3.214v65.754c0 1.17-.438 2.193-1.315 3.068-.877.877-1.899 1.316-3.068 1.316-1.365 0-2.437-.439-3.215-1.316-.78-.875-1.169-1.898-1.169-3.068v-17.388l2.484-1.169c0 2.729-.756 5.504-2.265 8.328-1.512 2.827-3.58 5.457-6.211 7.891-2.63 2.438-5.724 4.41-9.278 5.918-3.557 1.51-7.429 2.266-11.616 2.266-6.527 0-12.397-1.703-17.607-5.115-5.213-3.408-9.304-8.084-12.274-14.027-2.973-5.939-4.457-12.613-4.457-20.018 0-7.599 1.51-14.295 4.53-20.092 3.018-5.795 7.109-10.35 12.273-13.663 5.162-3.311 10.959-4.968 17.389-4.968 4.188 0 8.109.73 11.763 2.191 3.653 1.461 6.843 3.459 9.571 5.991 2.726 2.534 4.87 5.432 6.429 8.694 1.558 3.265 2.338 6.649 2.338 10.156l-3.068-2.192v-18.557c0-1.265.389-2.338 1.169-3.214.777-.877 1.848-1.315 3.213-1.315zm-30.392 67.945c5.162 0 9.739-1.338 13.734-4.018 3.994-2.678 7.136-6.379 9.425-11.105 2.288-4.724 3.435-10.01 3.435-15.854 0-5.747-1.146-10.909-3.435-15.489-2.289-4.578-5.431-8.23-9.425-10.959-3.995-2.726-8.572-4.091-13.734-4.091-5.066 0-9.622 1.315-13.663 3.945-4.043 2.63-7.21 6.235-9.497 10.813-2.29 4.58-3.435 9.84-3.435 15.781 0 5.844 1.119 11.13 3.361 15.854 2.239 4.727 5.381 8.428 9.425 11.105 4.041 2.68 8.644 4.018 13.809 4.018z"/><path d="m738.483 38.428c-2.046 0-3.58-.461-4.603-1.388-1.023-.924-1.534-2.265-1.534-4.018v-1.461c0-1.753.56-3.091 1.681-4.018 1.118-.925 2.652-1.388 4.603-1.388 1.85 0 3.287.463 4.311 1.388 1.022.927 1.534 2.265 1.534 4.018v1.461c0 1.753-.512 3.094-1.534 4.018-1.024.927-2.51 1.388-4.458 1.388zm4.384 81.389c0 1.17-.438 2.193-1.315 3.068-.876.877-1.899 1.316-3.068 1.316-1.267 0-2.315-.439-3.142-1.316-.829-.875-1.242-1.898-1.242-3.068v-67.215c0-1.169.413-2.192 1.242-3.068.826-.877 1.875-1.315 3.142-1.315 1.265 0 2.312.438 3.142 1.315.826.876 1.242 1.899 1.242 3.068v67.215z"/><path d="m801.168 47.78c6.623 0 12.493 1.657 17.607 4.968 5.114 3.313 9.181 7.868 12.201 13.663 3.019 5.797 4.53 12.493 4.53 20.092 0 7.404-1.512 14.078-4.53 20.018-3.021 5.943-7.112 10.619-12.274 14.027-5.164 3.412-10.959 5.115-17.388 5.115-3.411 0-6.648-.537-9.718-1.607-3.068-1.07-5.869-2.508-8.401-4.311-2.534-1.803-4.774-3.92-6.722-6.356-1.95-2.434-3.507-5.063-4.676-7.891l2.63-1.899v16.512c0 1.268-.415 2.314-1.242 3.141-.828.83-1.876 1.242-3.142 1.242-1.267 0-2.314-.412-3.142-1.242-.828-.826-1.241-1.873-1.241-3.141v-99.509c0-1.265.388-2.313 1.169-3.142.778-.827 1.849-1.242 3.214-1.242 1.266 0 2.313.416 3.142 1.242.827.829 1.242 1.877 1.242 3.142v48.951l-2.046-1.169c.973-3.018 2.411-5.771 4.311-8.255s4.114-4.651 6.649-6.502c2.531-1.85 5.308-3.288 8.328-4.311 3.019-1.024 6.186-1.536 9.499-1.536zm-.73 8.183c-5.261 0-9.889 1.315-13.882 3.945-3.995 2.63-7.137 6.235-9.425 10.813-2.29 4.58-3.434 9.84-3.434 15.781 0 5.844 1.144 11.13 3.434 15.854 2.288 4.727 5.43 8.428 9.425 11.105 3.993 2.68 8.621 4.018 13.882 4.018 5.162 0 9.717-1.362 13.662-4.091 3.945-2.726 7.087-6.452 9.425-11.179 2.338-4.723 3.507-9.959 3.507-15.707 0-5.941-1.169-11.202-3.507-15.781-2.338-4.578-5.479-8.183-9.425-10.813s-8.5-3.945-13.662-3.945z"/><path d="m863.268 119.817c0 1.17-.438 2.193-1.315 3.068-.876.877-1.899 1.316-3.068 1.316-1.267 0-2.314-.439-3.142-1.316-.828-.875-1.242-1.898-1.242-3.068v-99.361c0-1.169.438-2.192 1.315-3.069.877-.876 1.899-1.315 3.068-1.315 1.265 0 2.313.438 3.142 1.315.827.877 1.242 1.9 1.242 3.069z"/><path d="m918.94 125.663c-7.502 0-14.126-1.607-19.872-4.822-5.749-3.215-10.229-7.694-13.443-13.443-3.215-5.746-4.822-12.468-4.822-20.164 0-8.279 1.631-15.343 4.896-21.188 3.263-5.845 7.5-10.349 12.712-13.516 5.211-3.164 10.74-4.749 16.585-4.749 4.285 0 8.45.755 12.493 2.265 4.041 1.511 7.621 3.751 10.74 6.722 3.116 2.973 5.648 6.601 7.599 10.886 1.947 4.288 2.97 9.256 3.068 14.905 0 1.168-.438 2.168-1.315 2.995-.877.829-1.899 1.242-3.068 1.242h-58.595l-1.753-7.891h57.571l-1.899 1.753v-2.922c-.489-4.578-1.998-8.475-4.53-11.69-2.534-3.214-5.577-5.648-9.132-7.306-3.558-1.655-7.283-2.484-11.179-2.484-2.922 0-5.918.584-8.986 1.753s-5.845 2.996-8.329 5.479c-2.483 2.484-4.507 5.651-6.063 9.498-1.56 3.85-2.338 8.401-2.338 13.662 0 5.749 1.169 10.96 3.507 15.636s5.698 8.379 10.082 11.104c4.384 2.729 9.692 4.091 15.927 4.091 3.311 0 6.332-.486 9.06-1.461 2.727-.973 5.138-2.265 7.233-3.872 2.094-1.606 3.822-3.288 5.188-5.041 1.07-.876 2.094-1.315 3.068-1.315 1.07 0 1.973.391 2.703 1.17.73.78 1.096 1.657 1.096 2.629 0 1.17-.488 2.192-1.461 3.069-2.923 3.507-6.722 6.552-11.397 9.132s-9.793 3.873-15.346 3.873z"/><path d="m962.776 112.366c-.78-1.17-1.146-2.312-1.096-3.434.048-1.119.657-2.021 1.827-2.703.778-.682 1.68-.973 2.703-.877 1.022.098 1.973.584 2.849 1.461 2.631 3.41 5.82 6.162 9.571 8.256 3.749 2.096 8.206 3.141 13.37 3.141 2.726 0 5.43-.461 8.109-1.387s4.896-2.338 6.648-4.238c1.754-1.899 2.631-4.311 2.631-7.232 0-3.019-.877-5.455-2.631-7.307-1.753-1.85-4.018-3.311-6.794-4.383-2.776-1.071-5.725-1.996-8.841-2.777-3.312-.877-6.527-1.874-9.644-2.995-3.119-1.118-5.87-2.532-8.256-4.237-2.389-1.703-4.311-3.774-5.772-6.21-1.461-2.434-2.191-5.406-2.191-8.913 0-4.091 1.119-7.694 3.36-10.813 2.24-3.117 5.283-5.553 9.133-7.306 3.848-1.753 8.206-2.63 13.078-2.63 2.434 0 5.063.317 7.891.95 2.824.635 5.601 1.68 8.329 3.142 2.726 1.461 5.162 3.459 7.306 5.991.877.877 1.315 1.877 1.315 2.996 0 1.121-.489 2.119-1.462 2.996-.78.584-1.68.876-2.703.876-1.022 0-1.877-.388-2.557-1.169-2.338-2.63-5.114-4.625-8.329-5.991-3.215-1.363-6.674-2.046-10.375-2.046-2.826 0-5.479.463-7.963 1.388-2.484.927-4.556 2.315-6.211 4.165-1.657 1.852-2.483 4.288-2.483 7.306.194 2.827 1.191 5.114 2.995 6.868 1.802 1.754 4.188 3.215 7.16 4.384 2.971 1.169 6.306 2.242 10.009 3.215 3.117.78 6.112 1.706 8.987 2.776 2.872 1.072 5.406 2.41 7.598 4.018 2.192 1.607 3.945 3.631 5.261 6.064 1.314 2.436 1.973 5.505 1.973 9.205 0 4.289-1.194 7.989-3.58 11.105-2.389 3.119-5.578 5.506-9.571 7.16-3.995 1.656-8.427 2.484-13.297 2.484-5.26 0-10.352-1.023-15.27-3.068-4.918-2.05-9.277-5.458-13.077-10.231z"/></g></svg>