<?xml version="1.0" encoding="UTF-8" standalone="no"?>
<!-- Generator: Adobe Illustrator 19.0.0, SVG Export Plug-In . SVG Version: 6.00 Build 0)  -->

<svg
   xmlns:dc="http://purl.org/dc/elements/1.1/"
   xmlns:cc="http://creativecommons.org/ns#"
   xmlns:rdf="http://www.w3.org/1999/02/22-rdf-syntax-ns#"
   xmlns:svg="http://www.w3.org/2000/svg"
   xmlns="http://www.w3.org/2000/svg"
   xmlns:sodipodi="http://sodipodi.sourceforge.net/DTD/sodipodi-0.dtd"
   xmlns:inkscape="http://www.inkscape.org/namespaces/inkscape"
   version="1.1"
   id="Layer_1"
   x="0px"
   y="0px"
   viewBox="0 0 512 512"
   style="enable-background:new 0 0 512 512;"
   xml:space="preserve"
   sodipodi:docname="crp.svg"
   inkscape:version="0.92.4 (5da689c313, 2019-01-14)"><metadata
   id="metadata965"><rdf:RDF><cc:Work
       rdf:about=""><dc:format>image/svg+xml</dc:format><dc:type
         rdf:resource="http://purl.org/dc/dcmitype/StillImage" /></cc:Work></rdf:RDF></metadata><defs
   id="defs963"><filter
     style="color-interpolation-filters:sRGB;"
     inkscape:label="Drop Shadow"
     id="filter1193"><feFlood
       flood-opacity="0.819608"
       flood-color="rgb(0,0,0)"
       result="flood"
       id="feFlood1183" /><feComposite
       in="flood"
       in2="SourceGraphic"
       operator="in"
       result="composite1"
       id="feComposite1185" /><feGaussianBlur
       in="composite1"
       stdDeviation="20.3209"
       result="blur"
       id="feGaussianBlur1187" /><feOffset
       dx="6"
       dy="6"
       result="offset"
       id="feOffset1189" /><feComposite
       in="SourceGraphic"
       in2="offset"
       operator="over"
       result="composite2"
       id="feComposite1191" /></filter></defs><sodipodi:namedview
   pagecolor="#ffffff"
   bordercolor="#666666"
   borderopacity="1"
   objecttolerance="10"
   gridtolerance="10"
   guidetolerance="10"
   inkscape:pageopacity="0"
   inkscape:pageshadow="2"
   inkscape:window-width="1610"
   inkscape:window-height="986"
   id="namedview961"
   showgrid="false"
   inkscape:snap-text-baseline="true"
   inkscape:snap-bbox="true"
   inkscape:bbox-paths="true"
   inkscape:zoom="1.5742188"
   inkscape:cx="237.26055"
   inkscape:cy="256"
   inkscape:window-x="70"
   inkscape:window-y="27"
   inkscape:window-maximized="1"
   inkscape:current-layer="Layer_1" />
<g
   id="g914">
	<path
   style="fill:#e3cc49;fill-opacity:0.43083003;filter:url(#filter1193)"
   d="M272.344,441.827l46.931-78.915l89.457-0.181c0.033,11.029,5.767,21.74,16.005,27.647   c15.305,8.837,34.875,3.594,43.711-11.711c8.837-15.303,3.594-34.877-11.709-43.715c-10.131-5.844-22.127-5.524-31.645-0.204   l-44.873-80.102l44.568-77.564c9.567,5.487,21.711,5.878,31.949-0.033c15.303-8.837,20.546-28.407,11.709-43.711   c-8.835-15.31-28.405-20.552-43.711-11.714c-10.129,5.851-15.848,16.397-16.001,27.299l-91.809-1.183l-44.883-77.387   c9.531-5.536,15.942-15.859,15.942-27.682c0-17.672-14.328-32-32-32c-17.674,0-32.002,14.328-32.002,32   c0,11.698,6.276,21.923,15.642,27.505l-46.929,78.919l-89.457,0.177c-0.034-11.026-5.769-21.736-16.005-27.648   c-15.305-8.837-34.874-3.594-43.711,11.714c-8.837,15.303-3.594,34.873,11.709,43.711c10.131,5.849,22.127,5.524,31.645,0.208   l44.873,80.102l-44.568,77.56c-9.567-5.483-21.711-5.874-31.949,0.033c-15.303,8.837-20.546,28.407-11.709,43.715   c8.837,15.305,28.405,20.548,43.711,11.711c10.129-5.846,15.85-16.392,16.003-27.295l91.807,1.183l44.883,77.383   c-9.531,5.54-15.942,15.863-15.942,27.684c0,17.671,14.328,31.997,32.002,31.997c17.672,0,32-14.328,32-31.997   C287.988,457.638,281.711,447.409,272.344,441.827z"
   id="path910" />
	
<g
   aria-label="CRP"
   style="font-style:normal;font-weight:normal;font-size:40px;line-height:1.25;font-family:sans-serif;letter-spacing:0px;word-spacing:0px;fill:#000000;fill-opacity:1;stroke:none"
   id="text969"><path
     style="font-style:normal;font-variant:normal;font-weight:normal;font-stretch:normal;font-size:85.33333588px;font-family:'Good Times';-inkscape-font-specification:'Good Times, Normal';font-variant-ligatures:normal;font-variant-caps:normal;font-variant-numeric:normal;font-feature-settings:normal;text-align:start;writing-mode:lr-tb;text-anchor:start"
     d="m 175.7168,224.26562 c -17.49081,0.37689 -31.91788,17.62077 -28.54297,34.88868 1.6634,14.5538 15.06082,28.54205 30.66065,27.37822 10.64972,0.32024 22.24035,0.0451 32.65185,-0.54424 1.76188,-4.07672 1.39147,-11.79756 -4.66797,-10.71094 -9.57133,0.61743 -19.12301,0.56665 -28.71094,0.41211 -10.05355,0.12385 -18.87418,-8.28968 -19.08008,-18.32226 -1.07467,-10.63515 6.96322,-22.51823 18.44532,-21.92383 11.35596,-0.58731 22.84744,0.19595 34.11523,-0.25195 -0.15647,-3.47271 1.80335,-7.3039 -0.19531,-10.48633 -11.45576,-0.30303 -23.13736,-0.078 -34.67578,-0.43946 z"
     id="path999"
     inkscape:connector-curvature="0" /><path
     style="font-style:normal;font-variant:normal;font-weight:normal;font-stretch:normal;font-size:85.33333588px;font-family:'Good Times';-inkscape-font-specification:'Good Times, Normal';font-variant-ligatures:normal;font-variant-caps:normal;font-variant-numeric:normal;font-feature-settings:normal;text-align:start;writing-mode:lr-tb;text-anchor:start"
     d="m 255.97266,224.26953 c -12.11243,0.61542 -24.2417,0.0941 -36.36133,0.13867 0.0767,20.58845 -0.18505,41.17825 0.12109,61.76563 3.41246,-0.32721 8.7911,2.63716 10.68946,-1.19531 0.12771,-5.78386 -0.68748,-12.11054 2.73828,-17.20118 10.11499,4.84704 23.37236,-2.96463 32.29101,5.50586 5.28109,5.70786 10.32894,15.68698 19.7168,13.02149 2.55822,-0.12744 5.10347,0.28215 7.6543,0.40039 -6.18632,-6.13126 -12.44173,-12.21173 -18.12696,-18.82031 17.35214,-7.64645 15.68665,-37.78582 -3.05273,-42.37891 -5.13177,-1.21043 -10.42193,-1.35828 -15.66992,-1.23633 z m 7.32031,10.80274 c 8.85429,-0.44206 16.47204,9.72729 11.80273,17.83984 -2.78866,6.00463 -10.13042,8.45414 -16.25195,6.77821 -9.48772,0.0134 -18.97573,0.0322 -28.46289,-0.0927 0.11939,-8.07961 -0.36422,-16.17834 0.36914,-24.24024 10.84633,0.005 21.70411,-0.004 32.54297,-0.28515 z"
     id="path1001"
     inkscape:connector-curvature="0" /><path
     style="font-style:normal;font-variant:normal;font-weight:normal;font-stretch:normal;font-size:85.33333588px;font-family:'Good Times';-inkscape-font-specification:'Good Times, Normal';font-variant-ligatures:normal;font-variant-caps:normal;font-variant-numeric:normal;font-feature-settings:normal;text-align:start;writing-mode:lr-tb;text-anchor:start"
     d="m 335.41797,224.24414 c -12.37218,0.59836 -24.75918,0.17267 -37.13867,0.17188 0.0746,20.58649 -0.18371,41.17432 0.11914,61.75976 3.57921,-0.23463 11.04318,3.15399 10.77148,-2.84375 0.0171,-5.17161 -0.58175,-10.5336 1.32617,-15.48437 11.59462,2.30764 23.60085,1.30699 35.30079,1.26562 11.27064,-1.50166 20.14043,-11.99524 18.98828,-23.40625 -0.22679,-10.94214 -9.15771,-21.40064 -20.54585,-21.08399 -2.9257,-0.34611 -5.878,-0.40362 -8.82134,-0.3789 z m 2.76758,10.91211 c 7.1184,-0.83236 15.65608,3.16947 16.0332,11.09961 0.45285,8.87987 -9.58035,15.10127 -17.62109,12.49443 -9.50912,0.002 -19.01823,0.006 -28.52735,0.008 2.58974,-7.58315 -1.60813,-16.78239 4.23633,-23.36719 8.62807,0.0715 17.25142,-0.2813 25.87891,-0.23437 z"
     id="path1003"
     inkscape:connector-curvature="0" /></g></g>
<g
   id="g928">
	<path
   style="fill:#000003"
   d="M 254.94727,4.0136719 C 231.04831,3.7707594 211.3922,29.734813 218.64648,52.683594 c 2.05911,7.561398 6.42398,14.299383 12.08594,19.402344 -13.94706,23.447138 -27.88987,46.896812 -41.83398,70.345702 -26.50651,0.0524 -53.01303,0.10418 -79.51953,0.1582 -3.33166,-22.51792 -29.213649,-37.93264 -50.593754,-29.95507 -20.762068,6.62737 -32.455045,32.47266 -23.019531,52.32031 7.352658,16.98931 28.06531,27.22603 45.921875,21.59961 7.325668,2.40175 7.748245,11.66738 12.229422,16.90893 10.055958,17.94947 20.109768,35.90016 30.167058,53.84888 -13.20273,22.98014 -26.408387,45.9586 -39.613277,68.9375 -21.317834,-8.48822 -47.829922,6.5973 -51.310547,29.31836 -4.501655,21.45492 12.630692,44.30363 34.589844,45.70898 18.18733,1.77737 36.86835,-11.07859 40.93359,-29.04296 5.72298,-5.17265 13.98821,-0.87093 20.7557,-2.148 20.57817,0.26645 41.15638,0.53032 61.73454,0.79839 13.30112,22.9264 26.5981,45.85521 39.89648,68.7832 -17.6573,14.0666 -18.26702,43.84557 -0.98242,58.47851 16.21546,15.02842 44.44795,12.28599 57.10352,-5.83007 11.16433,-15.00271 9.46781,-37.67198 -4.03516,-50.66993 -2.69182,-6.47608 5.22531,-10.81082 6.82366,-16.4298 11.03061,-18.54824 22.06262,-37.09565 33.09236,-55.64441 26.50651,-0.0535 53.01302,-0.10698 79.51953,-0.16211 3.28571,22.42626 29.1075,37.89765 50.52539,29.97461 20.44775,-6.53888 32.29359,-31.70239 23.47461,-51.49219 -7.14422,-17.58006 -27.9755,-27.93325 -46.2168,-22.62891 -7.09551,-1.41238 -7.19598,-10.35507 -11.34034,-14.98178 -10.38197,-18.53083 -20.76414,-37.06154 -31.14599,-55.59244 13.20343,-22.98206 26.40965,-45.96253 39.61524,-68.94336 21.37488,8.48276 47.74951,-6.56482 51.34765,-29.32617 4.56277,-21.90191 -13.26612,-44.90702 -35.71679,-45.78711 -18.35909,-1.24441 -36.97884,12.36671 -40.28711,30.87696 -19.73165,1.40125 -39.54402,-0.44311 -59.30854,-0.0975 -7.57944,-0.0987 -15.15892,-0.19479 -22.73834,-0.29506 -13.30053,-22.92637 -26.59673,-45.855255 -39.89453,-68.783206 17.82512,-14.197719 18.265,-44.492458 0.51172,-58.785156 -7.2296,-6.3151839 -16.85877,-9.8624571 -26.4707,-9.5351561 z m 1.73046,13.3125001 c 16.84936,-0.239413 29.81876,19.375953 22.88282,34.796875 -2.32834,6.756342 -8.82136,10.560512 -13.49805,15.300781 -2.23241,7.384826 5.26424,12.946125 7.78741,19.307895 13.21949,21.964137 25.06205,45.024657 39.20673,66.268277 7.88847,3.52807 16.5686,0.35961 24.92568,1.65332 24.54339,-0.019 49.23059,1.47403 73.68565,0.33887 6.07533,-3.84743 2.6733,-12.49967 6.73437,-17.82813 7.02768,-13.21142 26.28545,-17.58461 37.95704,-7.87304 12.46117,9.35019 13.01785,30.3794 0.31835,39.8164 -8.65048,7.13633 -21.52741,6.95374 -30.86914,1.3457 -8.35592,-0.17889 -9.82195,10.38021 -13.88062,15.69653 -12.61105,22.64099 -26.71487,44.68666 -38.19555,67.78785 0.87238,8.54143 8.02933,14.63297 11.05397,22.43637 12.36881,21.28162 23.28938,43.60567 36.76439,64.12222 6.50703,2.84153 12.37965,-4.2722 19.16406,-3.24414 14.78449,-0.17191 27.77249,14.24887 25.20118,29.01758 -1.923,15.58133 -20.24709,26.46209 -34.66211,19.94727 -10.38449,-4.03791 -16.40149,-15.22651 -16.3086,-26.00782 -4.08755,-7.14028 -13.81412,-3.28496 -20.41992,-4.08984 -25.92467,0.41524 -52.10964,-0.79605 -77.87305,0.8125 -6.82709,4.70541 -8.3336,13.68378 -13.39786,19.92364 -12.40346,21.66139 -26.47947,42.56609 -37.65487,64.77753 0.79589,7.13732 10.09169,8.6613 12.54101,15.19531 7.52846,13.04015 0.8922,31.81713 -13.6621,36.46876 -14.91352,5.61184 -33.27403,-5.92108 -33.81055,-22.09961 -0.86003,-10.47014 5.65957,-20.32738 14.51367,-25.38086 4.2444,-7.18174 -4.09307,-13.67893 -6.67193,-19.83834 -13.29628,-22.24171 -25.34134,-45.47327 -39.59369,-66.97026 -7.87738,-3.57761 -16.57097,-0.33312 -24.92373,-1.65527 -24.54319,0.0203 -49.23178,-1.47669 -73.68565,-0.33692 -6.08083,3.84248 -2.668289,12.50784 -6.736328,17.83008 -7.028865,13.2006 -26.271446,17.57491 -37.943359,7.87696 -12.425336,-9.31603 -13.020644,-30.23698 -0.445312,-39.73047 8.658865,-7.24274 21.626747,-7.05511 31.02539,-1.43555 8.317315,0.16925 9.79725,-10.44279 13.841559,-15.70434 12.60381,-22.63027 26.72235,-44.68904 38.1936,-67.78589 -0.87814,-8.53849 -8.02761,-14.62676 -11.05077,-22.42928 -12.37218,-21.28346 -23.29103,-43.61804 -36.773451,-64.13127 -6.496665,-2.8482 -12.353195,4.26725 -19.126953,3.24805 -14.753998,0.18488 -27.716075,-14.16375 -25.244141,-28.9043 1.871154,-15.60061 20.117238,-26.60309 34.669922,-20.06445 10.327153,4.03056 16.419177,15.15086 16.277344,25.91601 4.088049,7.28127 13.889149,3.35001 20.517569,4.17911 25.9037,-0.39711 52.06836,0.79229 77.81056,-0.80606 7.03592,-4.98335 8.61717,-14.28619 13.91822,-20.79406 12.25031,-21.22809 25.82098,-41.854499 37.10717,-63.543832 -0.18739,-7.237303 -9.47886,-8.610324 -12.06836,-14.804687 -7.99302,-12.781488 -1.99282,-31.991693 12.59375,-36.894532 3.11475,-1.219406 6.46605,-1.75679 9.80468,-1.710937 z"
   id="path916"
   inkscape:connector-curvature="0" />
	<path
   style="fill:#000003;fill-opacity:0.41501975"
   d="m 235.91797,152.64844 c -8.09467,1.87655 -8.80351,11.64025 -13.66146,17.16227 -3.015,5.07168 -6.03146,10.14248 -9.04557,15.21468 -14.02102,0.81557 -28.66742,-1.29481 -42.11328,1.21289 -5.87917,3.73426 -1.60299,14.52581 5.5664,12.18226 14.32031,-0.24272 28.90601,0.84823 43.02735,-0.72327 6.21941,-4.06554 7.53661,-12.15907 11.93945,-17.7793 3.55279,-7.50985 10.97667,-13.72895 11.07422,-22.39453 -0.82147,-2.89161 -3.74336,-5.1287 -6.78711,-4.875 z"
   id="path918"
   inkscape:connector-curvature="0" />
	<path
   style="fill:#000003;fill-opacity:0.32806325"
   d="m 334.05078,313.22656 c -14.441,2.19808 -29.38534,-2.3864 -43.45312,1.81641 -4.85356,3.84605 -1.04288,13.20665 5.26172,11.64844 13.47034,0.40228 27.01911,-0.41219 40.43554,0.59375 5.98818,-0.15166 10.50904,-8.03593 5.0625,-12.09571 -2.09687,-1.50488 -4.7706,-1.99812 -7.30664,-1.96289 z"
   id="path920"
   inkscape:connector-curvature="0" />
	<path
   style="fill:#000003;fill-opacity:0.32806325"
   d="m 367.38477,313.63477 c -8.13419,-0.12507 -7.96231,13.85875 0.35742,13.49609 6.64564,0.1819 9.88947,-10.09904 3.21875,-12.81641 -1.10272,-0.54113 -2.35155,-0.78025 -3.57617,-0.67968 z"
   id="path922"
   inkscape:connector-curvature="0" />
	<path
   style="fill:#000003;fill-opacity:0.33596838"
   d="m 143.58594,185.19336 c -7.75921,-0.14809 -8.184,13.01284 -0.34571,13.42578 7.01513,1.04704 10.88909,-9.77891 3.98438,-12.71289 -1.11431,-0.57059 -2.39111,-0.8227 -3.63867,-0.71289 z"
   id="path924"
   inkscape:connector-curvature="0" />
	
</g>
<g
   id="g930">
</g>
<g
   id="g932">
</g>
<g
   id="g934">
</g>
<g
   id="g936">
</g>
<g
   id="g938">
</g>
<g
   id="g940">
</g>
<g
   id="g942">
</g>
<g
   id="g944">
</g>
<g
   id="g946">
</g>
<g
   id="g948">
</g>
<g
   id="g950">
</g>
<g
   id="g952">
</g>
<g
   id="g954">
</g>
<g
   id="g956">
</g>
<g
   id="g958">
</g>
</svg>