<svg height="100mm" viewBox="0 0 100 100" width="100mm" xmlns="http://www.w3.org/2000/svg"><g transform="translate(0 -197)"><ellipse cx="50.233635" cy="247.10483" fill="#fff" rx="49.404572" ry="49.17466" stroke="#000" stroke-width=".406"/><g fill="none" stroke-linejoin="round"><path d="m24.051267 252.53756h5.595301l4.091913-13.8102 4.091913 31.71231 6.649359-45.52253 5.60537 41.10619" stroke="#20459a" stroke-linecap="round" stroke-width="2.819338"/><path d="m55.203368 225.10105 4.752018 35.85606 7.25691-27.08318 3.074425 11.4739h4.890646" stroke="#e9222e" stroke-linecap="round" stroke-width="2.819338"/><circle cx="-165.41692" cy="191.43881" r="5.659594" stroke="#20459a" stroke-linecap="square" stroke-width="2.819337" transform="matrix(.70710678 -.70710678 .70710678 .70710678 0 0)"/><circle cx="-116.69828" cy="193.71811" r="5.659594" stroke="#e9222e" stroke-linecap="square" stroke-width="2.819337" transform="matrix(.70710678 -.70710678 .70710678 .70710678 0 0)"/><circle cx="-156.39409" cy="227.79855" r="5.659594" stroke="#20459a" stroke-linecap="square" stroke-width="2.819337" transform="matrix(.70710678 -.70710678 .70710678 .70710678 0 0)"/><circle cx="-116.06335" cy="230.35971" r="5.659594" stroke="#e9222e" stroke-linecap="square" stroke-width="2.819337" transform="matrix(.70710678 -.70710678 .70710678 .70710678 0 0)"/></g></g></svg>